<?xml version="1.0" encoding="utf-8"?>
<COLLADA xmlns="http://www.collada.org/2005/11/COLLADASchema" version="1.4.1">
  <asset>
    <unit name="millimeter" meter="0.001"/>
    <up_axis>Z_UP</up_axis>
  </asset>
  <library_geometries>
    <geometry id="ban-graphic-geo" name="banner_graphic">
      <mesh>
        <source id="ban-graphic-pos">
          <float_array id="ban-graphic-pos-a" count="1152">3735.50 1985.00 4000.00 3731.84 2059.49 4000.00 3731.84 2059.49 4610.00 3735.50 1985.00 4000.00 3731.84 2059.49 4610.00 3735.50 1985.00 4610.00 3731.84 2059.49 4000.00 3720.90 2133.27 4000.00 3720.90 2133.27 4610.00 3731.84 2059.49 4000.00 3720.90 2133.27 4610.00 3731.84 2059.49 4610.00 3720.90 2133.27 4000.00 3702.77 2205.62 4000.00 3702.77 2205.62 4610.00 3720.90 2133.27 4000.00 3702.77 2205.62 4610.00 3720.90 2133.27 4610.00 3702.77 2205.62 4000.00 3677.65 2275.84 4000.00 3677.65 2275.84 4610.00 3702.77 2205.62 4000.00 3677.65 2275.84 4610.00 3702.77 2205.62 4610.00 3677.65 2275.84 4000.00 3645.76 2343.26 4000.00 3645.76 2343.26 4610.00 3677.65 2275.84 4000.00 3645.76 2343.26 4610.00 3677.65 2275.84 4610.00 3645.76 2343.26 4000.00 3607.42 2407.23 4000.00 3607.42 2407.23 4610.00 3645.76 2343.26 4000.00 3607.42 2407.23 4610.00 3645.76 2343.26 4610.00 3607.42 2407.23 4000.00 3562.99 2467.14 4000.00 3562.99 2467.14 4610.00 3607.42 2407.23 4000.00 3562.99 2467.14 4610.00 3607.42 2407.23 4610.00 3562.99 2467.14 4000.00 3512.90 2522.40 4000.00 3512.90 2522.40 4610.00 3562.99 2467.14 4000.00 3512.90 2522.40 4610.00 3562.99 2467.14 4610.00 3512.90 2522.40 4000.00 3457.64 2572.49 4000.00 3457.64 2572.49 4610.00 3512.90 2522.40 4000.00 3457.64 2572.49 4610.00 3512.90 2522.40 4610.00 3457.64 2572.49 4000.00 3397.73 2616.92 4000.00 3397.73 2616.92 4610.00 3457.64 2572.49 4000.00 3397.73 2616.92 4610.00 3457.64 2572.49 4610.00 3397.73 2616.92 4000.00 3333.76 2655.26 4000.00 3333.76 2655.26 4610.00 3397.73 2616.92 4000.00 3333.76 2655.26 4610.00 3397.73 2616.92 4610.00 3333.76 2655.26 4000.00 3266.34 2687.15 4000.00 3266.34 2687.15 4610.00 3333.76 2655.26 4000.00 3266.34 2687.15 4610.00 3333.76 2655.26 4610.00 3266.34 2687.15 4000.00 3196.12 2712.27 4000.00 3196.12 2712.27 4610.00 3266.34 2687.15 4000.00 3196.12 2712.27 4610.00 3266.34 2687.15 4610.00 3196.12 2712.27 4000.00 3123.77 2730.40 4000.00 3123.77 2730.40 4610.00 3196.12 2712.27 4000.00 3123.77 2730.40 4610.00 3196.12 2712.27 4610.00 3123.77 2730.40 4000.00 3049.99 2741.34 4000.00 3049.99 2741.34 4610.00 3123.77 2730.40 4000.00 3049.99 2741.34 4610.00 3123.77 2730.40 4610.00 3049.99 2741.34 4000.00 2975.50 2745.00 4000.00 2975.50 2745.00 4610.00 3049.99 2741.34 4000.00 2975.50 2745.00 4610.00 3049.99 2741.34 4610.00 2975.50 2745.00 4000.00 2901.01 2741.34 4000.00 2901.01 2741.34 4610.00 2975.50 2745.00 4000.00 2901.01 2741.34 4610.00 2975.50 2745.00 4610.00 2901.01 2741.34 4000.00 2827.23 2730.40 4000.00 2827.23 2730.40 4610.00 2901.01 2741.34 4000.00 2827.23 2730.40 4610.00 2901.01 2741.34 4610.00 2827.23 2730.40 4000.00 2754.88 2712.27 4000.00 2754.88 2712.27 4610.00 2827.23 2730.40 4000.00 2754.88 2712.27 4610.00 2827.23 2730.40 4610.00 2754.88 2712.27 4000.00 2684.66 2687.15 4000.00 2684.66 2687.15 4610.00 2754.88 2712.27 4000.00 2684.66 2687.15 4610.00 2754.88 2712.27 4610.00 2684.66 2687.15 4000.00 2617.24 2655.26 4000.00 2617.24 2655.26 4610.00 2684.66 2687.15 4000.00 2617.24 2655.26 4610.00 2684.66 2687.15 4610.00 2617.24 2655.26 4000.00 2553.27 2616.92 4000.00 2553.27 2616.92 4610.00 2617.24 2655.26 4000.00 2553.27 2616.92 4610.00 2617.24 2655.26 4610.00 2553.27 2616.92 4000.00 2493.36 2572.49 4000.00 2493.36 2572.49 4610.00 2553.27 2616.92 4000.00 2493.36 2572.49 4610.00 2553.27 2616.92 4610.00 2493.36 2572.49 4000.00 2438.10 2522.40 4000.00 2438.10 2522.40 4610.00 2493.36 2572.49 4000.00 2438.10 2522.40 4610.00 2493.36 2572.49 4610.00 2438.10 2522.40 4000.00 2388.01 2467.14 4000.00 2388.01 2467.14 4610.00 2438.10 2522.40 4000.00 2388.01 2467.14 4610.00 2438.10 2522.40 4610.00 2388.01 2467.14 4000.00 2343.58 2407.23 4000.00 2343.58 2407.23 4610.00 2388.01 2467.14 4000.00 2343.58 2407.23 4610.00 2388.01 2467.14 4610.00 2343.58 2407.23 4000.00 2305.24 2343.26 4000.00 2305.24 2343.26 4610.00 2343.58 2407.23 4000.00 2305.24 2343.26 4610.00 2343.58 2407.23 4610.00 2305.24 2343.26 4000.00 2273.35 2275.84 4000.00 2273.35 2275.84 4610.00 2305.24 2343.26 4000.00 2273.35 2275.84 4610.00 2305.24 2343.26 4610.00 2273.35 2275.84 4000.00 2248.23 2205.62 4000.00 2248.23 2205.62 4610.00 2273.35 2275.84 4000.00 2248.23 2205.62 4610.00 2273.35 2275.84 4610.00 2248.23 2205.62 4000.00 2230.10 2133.27 4000.00 2230.10 2133.27 4610.00 2248.23 2205.62 4000.00 2230.10 2133.27 4610.00 2248.23 2205.62 4610.00 2230.10 2133.27 4000.00 2219.16 2059.49 4000.00 2219.16 2059.49 4610.00 2230.10 2133.27 4000.00 2219.16 2059.49 4610.00 2230.10 2133.27 4610.00 2219.16 2059.49 4000.00 2215.50 1985.00 4000.00 2215.50 1985.00 4610.00 2219.16 2059.49 4000.00 2215.50 1985.00 4610.00 2219.16 2059.49 4610.00 2215.50 1985.00 4000.00 2219.16 1910.51 4000.00 2219.16 1910.51 4610.00 2215.50 1985.00 4000.00 2219.16 1910.51 4610.00 2215.50 1985.00 4610.00 2219.16 1910.51 4000.00 2230.10 1836.73 4000.00 2230.10 1836.73 4610.00 2219.16 1910.51 4000.00 2230.10 1836.73 4610.00 2219.16 1910.51 4610.00 2230.10 1836.73 4000.00 2248.23 1764.38 4000.00 2248.23 1764.38 4610.00 2230.10 1836.73 4000.00 2248.23 1764.38 4610.00 2230.10 1836.73 4610.00 2248.23 1764.38 4000.00 2273.35 1694.16 4000.00 2273.35 1694.16 4610.00 2248.23 1764.38 4000.00 2273.35 1694.16 4610.00 2248.23 1764.38 4610.00 2273.35 1694.16 4000.00 2305.24 1626.74 4000.00 2305.24 1626.74 4610.00 2273.35 1694.16 4000.00 2305.24 1626.74 4610.00 2273.35 1694.16 4610.00 2305.24 1626.74 4000.00 2343.58 1562.77 4000.00 2343.58 1562.77 4610.00 2305.24 1626.74 4000.00 2343.58 1562.77 4610.00 2305.24 1626.74 4610.00 2343.58 1562.77 4000.00 2388.01 1502.86 4000.00 2388.01 1502.86 4610.00 2343.58 1562.77 4000.00 2388.01 1502.86 4610.00 2343.58 1562.77 4610.00 2388.01 1502.86 4000.00 2438.10 1447.60 4000.00 2438.10 1447.60 4610.00 2388.01 1502.86 4000.00 2438.10 1447.60 4610.00 2388.01 1502.86 4610.00 2438.10 1447.60 4000.00 2493.36 1397.51 4000.00 2493.36 1397.51 4610.00 2438.10 1447.60 4000.00 2493.36 1397.51 4610.00 2438.10 1447.60 4610.00 2493.36 1397.51 4000.00 2553.27 1353.08 4000.00 2553.27 1353.08 4610.00 2493.36 1397.51 4000.00 2553.27 1353.08 4610.00 2493.36 1397.51 4610.00 2553.27 1353.08 4000.00 2617.24 1314.74 4000.00 2617.24 1314.74 4610.00 2553.27 1353.08 4000.00 2617.24 1314.74 4610.00 2553.27 1353.08 4610.00 2617.24 1314.74 4000.00 2684.66 1282.85 4000.00 2684.66 1282.85 4610.00 2617.24 1314.74 4000.00 2684.66 1282.85 4610.00 2617.24 1314.74 4610.00 2684.66 1282.85 4000.00 2754.88 1257.73 4000.00 2754.88 1257.73 4610.00 2684.66 1282.85 4000.00 2754.88 1257.73 4610.00 2684.66 1282.85 4610.00 2754.88 1257.73 4000.00 2827.23 1239.60 4000.00 2827.23 1239.60 4610.00 2754.88 1257.73 4000.00 2827.23 1239.60 4610.00 2754.88 1257.73 4610.00 2827.23 1239.60 4000.00 2901.01 1228.66 4000.00 2901.01 1228.66 4610.00 2827.23 1239.60 4000.00 2901.01 1228.66 4610.00 2827.23 1239.60 4610.00 2901.01 1228.66 4000.00 2975.50 1225.00 4000.00 2975.50 1225.00 4610.00 2901.01 1228.66 4000.00 2975.50 1225.00 4610.00 2901.01 1228.66 4610.00 2975.50 1225.00 4000.00 3049.99 1228.66 4000.00 3049.99 1228.66 4610.00 2975.50 1225.00 4000.00 3049.99 1228.66 4610.00 2975.50 1225.00 4610.00 3049.99 1228.66 4000.00 3123.77 1239.60 4000.00 3123.77 1239.60 4610.00 3049.99 1228.66 4000.00 3123.77 1239.60 4610.00 3049.99 1228.66 4610.00 3123.77 1239.60 4000.00 3196.12 1257.73 4000.00 3196.12 1257.73 4610.00 3123.77 1239.60 4000.00 3196.12 1257.73 4610.00 3123.77 1239.60 4610.00 3196.12 1257.73 4000.00 3266.34 1282.85 4000.00 3266.34 1282.85 4610.00 3196.12 1257.73 4000.00 3266.34 1282.85 4610.00 3196.12 1257.73 4610.00 3266.34 1282.85 4000.00 3333.76 1314.74 4000.00 3333.76 1314.74 4610.00 3266.34 1282.85 4000.00 3333.76 1314.74 4610.00 3266.34 1282.85 4610.00 3333.76 1314.74 4000.00 3397.73 1353.08 4000.00 3397.73 1353.08 4610.00 3333.76 1314.74 4000.00 3397.73 1353.08 4610.00 3333.76 1314.74 4610.00 3397.73 1353.08 4000.00 3457.64 1397.51 4000.00 3457.64 1397.51 4610.00 3397.73 1353.08 4000.00 3457.64 1397.51 4610.00 3397.73 1353.08 4610.00 3457.64 1397.51 4000.00 3512.90 1447.60 4000.00 3512.90 1447.60 4610.00 3457.64 1397.51 4000.00 3512.90 1447.60 4610.00 3457.64 1397.51 4610.00 3512.90 1447.60 4000.00 3562.99 1502.86 4000.00 3562.99 1502.86 4610.00 3512.90 1447.60 4000.00 3562.99 1502.86 4610.00 3512.90 1447.60 4610.00 3562.99 1502.86 4000.00 3607.42 1562.77 4000.00 3607.42 1562.77 4610.00 3562.99 1502.86 4000.00 3607.42 1562.77 4610.00 3562.99 1502.86 4610.00 3607.42 1562.77 4000.00 3645.76 1626.74 4000.00 3645.76 1626.74 4610.00 3607.42 1562.77 4000.00 3645.76 1626.74 4610.00 3607.42 1562.77 4610.00 3645.76 1626.74 4000.00 3677.65 1694.16 4000.00 3677.65 1694.16 4610.00 3645.76 1626.74 4000.00 3677.65 1694.16 4610.00 3645.76 1626.74 4610.00 3677.65 1694.16 4000.00 3702.77 1764.38 4000.00 3702.77 1764.38 4610.00 3677.65 1694.16 4000.00 3702.77 1764.38 4610.00 3677.65 1694.16 4610.00 3702.77 1764.38 4000.00 3720.90 1836.73 4000.00 3720.90 1836.73 4610.00 3702.77 1764.38 4000.00 3720.90 1836.73 4610.00 3702.77 1764.38 4610.00 3720.90 1836.73 4000.00 3731.84 1910.51 4000.00 3731.84 1910.51 4610.00 3720.90 1836.73 4000.00 3731.84 1910.51 4610.00 3720.90 1836.73 4610.00 3731.84 1910.51 4000.00 3735.50 1985.00 4000.00 3735.50 1985.00 4610.00 3731.84 1910.51 4000.00 3735.50 1985.00 4610.00 3731.84 1910.51 4610.00</float_array>
          <technique_common>
            <accessor source="#ban-graphic-pos-a" count="384" stride="3">
              <param name="X" type="float"/><param name="Y" type="float"/><param name="Z" type="float"/>
            </accessor>
          </technique_common>
        </source>
        <vertices id="ban-graphic-vtx"><input semantic="POSITION" source="#ban-graphic-pos"/></vertices>
        <triangles count="128">
          <input semantic="VERTEX" source="#ban-graphic-vtx" offset="0"/>
          <p>0 1 2 3 4 5 6 7 8 9 10 11 12 13 14 15 16 17 18 19 20 21 22 23 24 25 26 27 28 29 30 31 32 33 34 35 36 37 38 39 40 41 42 43 44 45 46 47 48 49 50 51 52 53 54 55 56 57 58 59 60 61 62 63 64 65 66 67 68 69 70 71 72 73 74 75 76 77 78 79 80 81 82 83 84 85 86 87 88 89 90 91 92 93 94 95 96 97 98 99 100 101 102 103 104 105 106 107 108 109 110 111 112 113 114 115 116 117 118 119 120 121 122 123 124 125 126 127 128 129 130 131 132 133 134 135 136 137 138 139 140 141 142 143 144 145 146 147 148 149 150 151 152 153 154 155 156 157 158 159 160 161 162 163 164 165 166 167 168 169 170 171 172 173 174 175 176 177 178 179 180 181 182 183 184 185 186 187 188 189 190 191 192 193 194 195 196 197 198 199 200 201 202 203 204 205 206 207 208 209 210 211 212 213 214 215 216 217 218 219 220 221 222 223 224 225 226 227 228 229 230 231 232 233 234 235 236 237 238 239 240 241 242 243 244 245 246 247 248 249 250 251 252 253 254 255 256 257 258 259 260 261 262 263 264 265 266 267 268 269 270 271 272 273 274 275 276 277 278 279 280 281 282 283 284 285 286 287 288 289 290 291 292 293 294 295 296 297 298 299 300 301 302 303 304 305 306 307 308 309 310 311 312 313 314 315 316 317 318 319 320 321 322 323 324 325 326 327 328 329 330 331 332 333 334 335 336 337 338 339 340 341 342 343 344 345 346 347 348 349 350 351 352 353 354 355 356 357 358 359 360 361 362 363 364 365 366 367 368 369 370 371 372 373 374 375 376 377 378 379 380 381 382 383</p>
        </triangles>
      </mesh>
    </geometry>
    <geometry id="ban-inner-geo" name="banner_inner">
      <mesh>
        <source id="ban-inner-pos">
          <float_array id="ban-inner-pos-a" count="1152">3729.50 1985.00 4000.00 3725.87 2058.90 4610.00 3725.87 2058.90 4000.00 3729.50 1985.00 4000.00 3729.50 1985.00 4610.00 3725.87 2058.90 4610.00 3725.87 2058.90 4000.00 3715.01 2132.10 4610.00 3715.01 2132.10 4000.00 3725.87 2058.90 4000.00 3725.87 2058.90 4610.00 3715.01 2132.10 4610.00 3715.01 2132.10 4000.00 3697.03 2203.87 4610.00 3697.03 2203.87 4000.00 3715.01 2132.10 4000.00 3715.01 2132.10 4610.00 3697.03 2203.87 4610.00 3697.03 2203.87 4000.00 3672.11 2273.54 4610.00 3672.11 2273.54 4000.00 3697.03 2203.87 4000.00 3697.03 2203.87 4610.00 3672.11 2273.54 4610.00 3672.11 2273.54 4000.00 3640.47 2340.43 4610.00 3640.47 2340.43 4000.00 3672.11 2273.54 4000.00 3672.11 2273.54 4610.00 3640.47 2340.43 4610.00 3640.47 2340.43 4000.00 3602.43 2403.90 4610.00 3602.43 2403.90 4000.00 3640.47 2340.43 4000.00 3640.47 2340.43 4610.00 3602.43 2403.90 4610.00 3602.43 2403.90 4000.00 3558.35 2463.33 4610.00 3558.35 2463.33 4000.00 3602.43 2403.90 4000.00 3602.43 2403.90 4610.00 3558.35 2463.33 4610.00 3558.35 2463.33 4000.00 3508.66 2518.16 4610.00 3508.66 2518.16 4000.00 3558.35 2463.33 4000.00 3558.35 2463.33 4610.00 3508.66 2518.16 4610.00 3508.66 2518.16 4000.00 3453.83 2567.85 4610.00 3453.83 2567.85 4000.00 3508.66 2518.16 4000.00 3508.66 2518.16 4610.00 3453.83 2567.85 4610.00 3453.83 2567.85 4000.00 3394.40 2611.93 4610.00 3394.40 2611.93 4000.00 3453.83 2567.85 4000.00 3453.83 2567.85 4610.00 3394.40 2611.93 4610.00 3394.40 2611.93 4000.00 3330.93 2649.97 4610.00 3330.93 2649.97 4000.00 3394.40 2611.93 4000.00 3394.40 2611.93 4610.00 3330.93 2649.97 4610.00 3330.93 2649.97 4000.00 3264.04 2681.61 4610.00 3264.04 2681.61 4000.00 3330.93 2649.97 4000.00 3330.93 2649.97 4610.00 3264.04 2681.61 4610.00 3264.04 2681.61 4000.00 3194.37 2706.53 4610.00 3194.37 2706.53 4000.00 3264.04 2681.61 4000.00 3264.04 2681.61 4610.00 3194.37 2706.53 4610.00 3194.37 2706.53 4000.00 3122.60 2724.51 4610.00 3122.60 2724.51 4000.00 3194.37 2706.53 4000.00 3194.37 2706.53 4610.00 3122.60 2724.51 4610.00 3122.60 2724.51 4000.00 3049.40 2735.37 4610.00 3049.40 2735.37 4000.00 3122.60 2724.51 4000.00 3122.60 2724.51 4610.00 3049.40 2735.37 4610.00 3049.40 2735.37 4000.00 2975.50 2739.00 4610.00 2975.50 2739.00 4000.00 3049.40 2735.37 4000.00 3049.40 2735.37 4610.00 2975.50 2739.00 4610.00 2975.50 2739.00 4000.00 2901.60 2735.37 4610.00 2901.60 2735.37 4000.00 2975.50 2739.00 4000.00 2975.50 2739.00 4610.00 2901.60 2735.37 4610.00 2901.60 2735.37 4000.00 2828.40 2724.51 4610.00 2828.40 2724.51 4000.00 2901.60 2735.37 4000.00 2901.60 2735.37 4610.00 2828.40 2724.51 4610.00 2828.40 2724.51 4000.00 2756.63 2706.53 4610.00 2756.63 2706.53 4000.00 2828.40 2724.51 4000.00 2828.40 2724.51 4610.00 2756.63 2706.53 4610.00 2756.63 2706.53 4000.00 2686.96 2681.61 4610.00 2686.96 2681.61 4000.00 2756.63 2706.53 4000.00 2756.63 2706.53 4610.00 2686.96 2681.61 4610.00 2686.96 2681.61 4000.00 2620.07 2649.97 4610.00 2620.07 2649.97 4000.00 2686.96 2681.61 4000.00 2686.96 2681.61 4610.00 2620.07 2649.97 4610.00 2620.07 2649.97 4000.00 2556.60 2611.93 4610.00 2556.60 2611.93 4000.00 2620.07 2649.97 4000.00 2620.07 2649.97 4610.00 2556.60 2611.93 4610.00 2556.60 2611.93 4000.00 2497.17 2567.85 4610.00 2497.17 2567.85 4000.00 2556.60 2611.93 4000.00 2556.60 2611.93 4610.00 2497.17 2567.85 4610.00 2497.17 2567.85 4000.00 2442.34 2518.16 4610.00 2442.34 2518.16 4000.00 2497.17 2567.85 4000.00 2497.17 2567.85 4610.00 2442.34 2518.16 4610.00 2442.34 2518.16 4000.00 2392.65 2463.33 4610.00 2392.65 2463.33 4000.00 2442.34 2518.16 4000.00 2442.34 2518.16 4610.00 2392.65 2463.33 4610.00 2392.65 2463.33 4000.00 2348.57 2403.90 4610.00 2348.57 2403.90 4000.00 2392.65 2463.33 4000.00 2392.65 2463.33 4610.00 2348.57 2403.90 4610.00 2348.57 2403.90 4000.00 2310.53 2340.43 4610.00 2310.53 2340.43 4000.00 2348.57 2403.90 4000.00 2348.57 2403.90 4610.00 2310.53 2340.43 4610.00 2310.53 2340.43 4000.00 2278.89 2273.54 4610.00 2278.89 2273.54 4000.00 2310.53 2340.43 4000.00 2310.53 2340.43 4610.00 2278.89 2273.54 4610.00 2278.89 2273.54 4000.00 2253.97 2203.87 4610.00 2253.97 2203.87 4000.00 2278.89 2273.54 4000.00 2278.89 2273.54 4610.00 2253.97 2203.87 4610.00 2253.97 2203.87 4000.00 2235.99 2132.10 4610.00 2235.99 2132.10 4000.00 2253.97 2203.87 4000.00 2253.97 2203.87 4610.00 2235.99 2132.10 4610.00 2235.99 2132.10 4000.00 2225.13 2058.90 4610.00 2225.13 2058.90 4000.00 2235.99 2132.10 4000.00 2235.99 2132.10 4610.00 2225.13 2058.90 4610.00 2225.13 2058.90 4000.00 2221.50 1985.00 4610.00 2221.50 1985.00 4000.00 2225.13 2058.90 4000.00 2225.13 2058.90 4610.00 2221.50 1985.00 4610.00 2221.50 1985.00 4000.00 2225.13 1911.10 4610.00 2225.13 1911.10 4000.00 2221.50 1985.00 4000.00 2221.50 1985.00 4610.00 2225.13 1911.10 4610.00 2225.13 1911.10 4000.00 2235.99 1837.90 4610.00 2235.99 1837.90 4000.00 2225.13 1911.10 4000.00 2225.13 1911.10 4610.00 2235.99 1837.90 4610.00 2235.99 1837.90 4000.00 2253.97 1766.13 4610.00 2253.97 1766.13 4000.00 2235.99 1837.90 4000.00 2235.99 1837.90 4610.00 2253.97 1766.13 4610.00 2253.97 1766.13 4000.00 2278.89 1696.46 4610.00 2278.89 1696.46 4000.00 2253.97 1766.13 4000.00 2253.97 1766.13 4610.00 2278.89 1696.46 4610.00 2278.89 1696.46 4000.00 2310.53 1629.57 4610.00 2310.53 1629.57 4000.00 2278.89 1696.46 4000.00 2278.89 1696.46 4610.00 2310.53 1629.57 4610.00 2310.53 1629.57 4000.00 2348.57 1566.10 4610.00 2348.57 1566.10 4000.00 2310.53 1629.57 4000.00 2310.53 1629.57 4610.00 2348.57 1566.10 4610.00 2348.57 1566.10 4000.00 2392.65 1506.67 4610.00 2392.65 1506.67 4000.00 2348.57 1566.10 4000.00 2348.57 1566.10 4610.00 2392.65 1506.67 4610.00 2392.65 1506.67 4000.00 2442.34 1451.84 4610.00 2442.34 1451.84 4000.00 2392.65 1506.67 4000.00 2392.65 1506.67 4610.00 2442.34 1451.84 4610.00 2442.34 1451.84 4000.00 2497.17 1402.15 4610.00 2497.17 1402.15 4000.00 2442.34 1451.84 4000.00 2442.34 1451.84 4610.00 2497.17 1402.15 4610.00 2497.17 1402.15 4000.00 2556.60 1358.07 4610.00 2556.60 1358.07 4000.00 2497.17 1402.15 4000.00 2497.17 1402.15 4610.00 2556.60 1358.07 4610.00 2556.60 1358.07 4000.00 2620.07 1320.03 4610.00 2620.07 1320.03 4000.00 2556.60 1358.07 4000.00 2556.60 1358.07 4610.00 2620.07 1320.03 4610.00 2620.07 1320.03 4000.00 2686.96 1288.39 4610.00 2686.96 1288.39 4000.00 2620.07 1320.03 4000.00 2620.07 1320.03 4610.00 2686.96 1288.39 4610.00 2686.96 1288.39 4000.00 2756.63 1263.47 4610.00 2756.63 1263.47 4000.00 2686.96 1288.39 4000.00 2686.96 1288.39 4610.00 2756.63 1263.47 4610.00 2756.63 1263.47 4000.00 2828.40 1245.49 4610.00 2828.40 1245.49 4000.00 2756.63 1263.47 4000.00 2756.63 1263.47 4610.00 2828.40 1245.49 4610.00 2828.40 1245.49 4000.00 2901.60 1234.63 4610.00 2901.60 1234.63 4000.00 2828.40 1245.49 4000.00 2828.40 1245.49 4610.00 2901.60 1234.63 4610.00 2901.60 1234.63 4000.00 2975.50 1231.00 4610.00 2975.50 1231.00 4000.00 2901.60 1234.63 4000.00 2901.60 1234.63 4610.00 2975.50 1231.00 4610.00 2975.50 1231.00 4000.00 3049.40 1234.63 4610.00 3049.40 1234.63 4000.00 2975.50 1231.00 4000.00 2975.50 1231.00 4610.00 3049.40 1234.63 4610.00 3049.40 1234.63 4000.00 3122.60 1245.49 4610.00 3122.60 1245.49 4000.00 3049.40 1234.63 4000.00 3049.40 1234.63 4610.00 3122.60 1245.49 4610.00 3122.60 1245.49 4000.00 3194.37 1263.47 4610.00 3194.37 1263.47 4000.00 3122.60 1245.49 4000.00 3122.60 1245.49 4610.00 3194.37 1263.47 4610.00 3194.37 1263.47 4000.00 3264.04 1288.39 4610.00 3264.04 1288.39 4000.00 3194.37 1263.47 4000.00 3194.37 1263.47 4610.00 3264.04 1288.39 4610.00 3264.04 1288.39 4000.00 3330.93 1320.03 4610.00 3330.93 1320.03 4000.00 3264.04 1288.39 4000.00 3264.04 1288.39 4610.00 3330.93 1320.03 4610.00 3330.93 1320.03 4000.00 3394.40 1358.07 4610.00 3394.40 1358.07 4000.00 3330.93 1320.03 4000.00 3330.93 1320.03 4610.00 3394.40 1358.07 4610.00 3394.40 1358.07 4000.00 3453.83 1402.15 4610.00 3453.83 1402.15 4000.00 3394.40 1358.07 4000.00 3394.40 1358.07 4610.00 3453.83 1402.15 4610.00 3453.83 1402.15 4000.00 3508.66 1451.84 4610.00 3508.66 1451.84 4000.00 3453.83 1402.15 4000.00 3453.83 1402.15 4610.00 3508.66 1451.84 4610.00 3508.66 1451.84 4000.00 3558.35 1506.67 4610.00 3558.35 1506.67 4000.00 3508.66 1451.84 4000.00 3508.66 1451.84 4610.00 3558.35 1506.67 4610.00 3558.35 1506.67 4000.00 3602.43 1566.10 4610.00 3602.43 1566.10 4000.00 3558.35 1506.67 4000.00 3558.35 1506.67 4610.00 3602.43 1566.10 4610.00 3602.43 1566.10 4000.00 3640.47 1629.57 4610.00 3640.47 1629.57 4000.00 3602.43 1566.10 4000.00 3602.43 1566.10 4610.00 3640.47 1629.57 4610.00 3640.47 1629.57 4000.00 3672.11 1696.46 4610.00 3672.11 1696.46 4000.00 3640.47 1629.57 4000.00 3640.47 1629.57 4610.00 3672.11 1696.46 4610.00 3672.11 1696.46 4000.00 3697.03 1766.13 4610.00 3697.03 1766.13 4000.00 3672.11 1696.46 4000.00 3672.11 1696.46 4610.00 3697.03 1766.13 4610.00 3697.03 1766.13 4000.00 3715.01 1837.90 4610.00 3715.01 1837.90 4000.00 3697.03 1766.13 4000.00 3697.03 1766.13 4610.00 3715.01 1837.90 4610.00 3715.01 1837.90 4000.00 3725.87 1911.10 4610.00 3725.87 1911.10 4000.00 3715.01 1837.90 4000.00 3715.01 1837.90 4610.00 3725.87 1911.10 4610.00 3725.87 1911.10 4000.00 3729.50 1985.00 4610.00 3729.50 1985.00 4000.00 3725.87 1911.10 4000.00 3725.87 1911.10 4610.00 3729.50 1985.00 4610.00</float_array>
          <technique_common>
            <accessor source="#ban-inner-pos-a" count="384" stride="3">
              <param name="X" type="float"/><param name="Y" type="float"/><param name="Z" type="float"/>
            </accessor>
          </technique_common>
        </source>
        <vertices id="ban-inner-vtx"><input semantic="POSITION" source="#ban-inner-pos"/></vertices>
        <triangles count="128">
          <input semantic="VERTEX" source="#ban-inner-vtx" offset="0"/>
          <p>0 1 2 3 4 5 6 7 8 9 10 11 12 13 14 15 16 17 18 19 20 21 22 23 24 25 26 27 28 29 30 31 32 33 34 35 36 37 38 39 40 41 42 43 44 45 46 47 48 49 50 51 52 53 54 55 56 57 58 59 60 61 62 63 64 65 66 67 68 69 70 71 72 73 74 75 76 77 78 79 80 81 82 83 84 85 86 87 88 89 90 91 92 93 94 95 96 97 98 99 100 101 102 103 104 105 106 107 108 109 110 111 112 113 114 115 116 117 118 119 120 121 122 123 124 125 126 127 128 129 130 131 132 133 134 135 136 137 138 139 140 141 142 143 144 145 146 147 148 149 150 151 152 153 154 155 156 157 158 159 160 161 162 163 164 165 166 167 168 169 170 171 172 173 174 175 176 177 178 179 180 181 182 183 184 185 186 187 188 189 190 191 192 193 194 195 196 197 198 199 200 201 202 203 204 205 206 207 208 209 210 211 212 213 214 215 216 217 218 219 220 221 222 223 224 225 226 227 228 229 230 231 232 233 234 235 236 237 238 239 240 241 242 243 244 245 246 247 248 249 250 251 252 253 254 255 256 257 258 259 260 261 262 263 264 265 266 267 268 269 270 271 272 273 274 275 276 277 278 279 280 281 282 283 284 285 286 287 288 289 290 291 292 293 294 295 296 297 298 299 300 301 302 303 304 305 306 307 308 309 310 311 312 313 314 315 316 317 318 319 320 321 322 323 324 325 326 327 328 329 330 331 332 333 334 335 336 337 338 339 340 341 342 343 344 345 346 347 348 349 350 351 352 353 354 355 356 357 358 359 360 361 362 363 364 365 366 367 368 369 370 371 372 373 374 375 376 377 378 379 380 381 382 383</p>
        </triangles>
      </mesh>
    </geometry>
    <geometry id="ban-cap-geo" name="banner_cap">
      <mesh>
        <source id="ban-cap-pos">
          <float_array id="ban-cap-pos-a" count="1728">2975.50 1985.00 4610.00 3735.50 1985.00 4610.00 3731.84 2059.49 4610.00 2975.50 1985.00 4610.00 3731.84 2059.49 4610.00 3720.90 2133.27 4610.00 2975.50 1985.00 4610.00 3720.90 2133.27 4610.00 3702.77 2205.62 4610.00 2975.50 1985.00 4610.00 3702.77 2205.62 4610.00 3677.65 2275.84 4610.00 2975.50 1985.00 4610.00 3677.65 2275.84 4610.00 3645.76 2343.26 4610.00 2975.50 1985.00 4610.00 3645.76 2343.26 4610.00 3607.42 2407.23 4610.00 2975.50 1985.00 4610.00 3607.42 2407.23 4610.00 3562.99 2467.14 4610.00 2975.50 1985.00 4610.00 3562.99 2467.14 4610.00 3512.90 2522.40 4610.00 2975.50 1985.00 4610.00 3512.90 2522.40 4610.00 3457.64 2572.49 4610.00 2975.50 1985.00 4610.00 3457.64 2572.49 4610.00 3397.73 2616.92 4610.00 2975.50 1985.00 4610.00 3397.73 2616.92 4610.00 3333.76 2655.26 4610.00 2975.50 1985.00 4610.00 3333.76 2655.26 4610.00 3266.34 2687.15 4610.00 2975.50 1985.00 4610.00 3266.34 2687.15 4610.00 3196.12 2712.27 4610.00 2975.50 1985.00 4610.00 3196.12 2712.27 4610.00 3123.77 2730.40 4610.00 2975.50 1985.00 4610.00 3123.77 2730.40 4610.00 3049.99 2741.34 4610.00 2975.50 1985.00 4610.00 3049.99 2741.34 4610.00 2975.50 2745.00 4610.00 2975.50 1985.00 4610.00 2975.50 2745.00 4610.00 2901.01 2741.34 4610.00 2975.50 1985.00 4610.00 2901.01 2741.34 4610.00 2827.23 2730.40 4610.00 2975.50 1985.00 4610.00 2827.23 2730.40 4610.00 2754.88 2712.27 4610.00 2975.50 1985.00 4610.00 2754.88 2712.27 4610.00 2684.66 2687.15 4610.00 2975.50 1985.00 4610.00 2684.66 2687.15 4610.00 2617.24 2655.26 4610.00 2975.50 1985.00 4610.00 2617.24 2655.26 4610.00 2553.27 2616.92 4610.00 2975.50 1985.00 4610.00 2553.27 2616.92 4610.00 2493.36 2572.49 4610.00 2975.50 1985.00 4610.00 2493.36 2572.49 4610.00 2438.10 2522.40 4610.00 2975.50 1985.00 4610.00 2438.10 2522.40 4610.00 2388.01 2467.14 4610.00 2975.50 1985.00 4610.00 2388.01 2467.14 4610.00 2343.58 2407.23 4610.00 2975.50 1985.00 4610.00 2343.58 2407.23 4610.00 2305.24 2343.26 4610.00 2975.50 1985.00 4610.00 2305.24 2343.26 4610.00 2273.35 2275.84 4610.00 2975.50 1985.00 4610.00 2273.35 2275.84 4610.00 2248.23 2205.62 4610.00 2975.50 1985.00 4610.00 2248.23 2205.62 4610.00 2230.10 2133.27 4610.00 2975.50 1985.00 4610.00 2230.10 2133.27 4610.00 2219.16 2059.49 4610.00 2975.50 1985.00 4610.00 2219.16 2059.49 4610.00 2215.50 1985.00 4610.00 2975.50 1985.00 4610.00 2215.50 1985.00 4610.00 2219.16 1910.51 4610.00 2975.50 1985.00 4610.00 2219.16 1910.51 4610.00 2230.10 1836.73 4610.00 2975.50 1985.00 4610.00 2230.10 1836.73 4610.00 2248.23 1764.38 4610.00 2975.50 1985.00 4610.00 2248.23 1764.38 4610.00 2273.35 1694.16 4610.00 2975.50 1985.00 4610.00 2273.35 1694.16 4610.00 2305.24 1626.74 4610.00 2975.50 1985.00 4610.00 2305.24 1626.74 4610.00 2343.58 1562.77 4610.00 2975.50 1985.00 4610.00 2343.58 1562.77 4610.00 2388.01 1502.86 4610.00 2975.50 1985.00 4610.00 2388.01 1502.86 4610.00 2438.10 1447.60 4610.00 2975.50 1985.00 4610.00 2438.10 1447.60 4610.00 2493.36 1397.51 4610.00 2975.50 1985.00 4610.00 2493.36 1397.51 4610.00 2553.27 1353.08 4610.00 2975.50 1985.00 4610.00 2553.27 1353.08 4610.00 2617.24 1314.74 4610.00 2975.50 1985.00 4610.00 2617.24 1314.74 4610.00 2684.66 1282.85 4610.00 2975.50 1985.00 4610.00 2684.66 1282.85 4610.00 2754.88 1257.73 4610.00 2975.50 1985.00 4610.00 2754.88 1257.73 4610.00 2827.23 1239.60 4610.00 2975.50 1985.00 4610.00 2827.23 1239.60 4610.00 2901.01 1228.66 4610.00 2975.50 1985.00 4610.00 2901.01 1228.66 4610.00 2975.50 1225.00 4610.00 2975.50 1985.00 4610.00 2975.50 1225.00 4610.00 3049.99 1228.66 4610.00 2975.50 1985.00 4610.00 3049.99 1228.66 4610.00 3123.77 1239.60 4610.00 2975.50 1985.00 4610.00 3123.77 1239.60 4610.00 3196.12 1257.73 4610.00 2975.50 1985.00 4610.00 3196.12 1257.73 4610.00 3266.34 1282.85 4610.00 2975.50 1985.00 4610.00 3266.34 1282.85 4610.00 3333.76 1314.74 4610.00 2975.50 1985.00 4610.00 3333.76 1314.74 4610.00 3397.73 1353.08 4610.00 2975.50 1985.00 4610.00 3397.73 1353.08 4610.00 3457.64 1397.51 4610.00 2975.50 1985.00 4610.00 3457.64 1397.51 4610.00 3512.90 1447.60 4610.00 2975.50 1985.00 4610.00 3512.90 1447.60 4610.00 3562.99 1502.86 4610.00 2975.50 1985.00 4610.00 3562.99 1502.86 4610.00 3607.42 1562.77 4610.00 2975.50 1985.00 4610.00 3607.42 1562.77 4610.00 3645.76 1626.74 4610.00 2975.50 1985.00 4610.00 3645.76 1626.74 4610.00 3677.65 1694.16 4610.00 2975.50 1985.00 4610.00 3677.65 1694.16 4610.00 3702.77 1764.38 4610.00 2975.50 1985.00 4610.00 3702.77 1764.38 4610.00 3720.90 1836.73 4610.00 2975.50 1985.00 4610.00 3720.90 1836.73 4610.00 3731.84 1910.51 4610.00 2975.50 1985.00 4610.00 3731.84 1910.51 4610.00 3735.50 1985.00 4610.00 3735.50 1985.00 4000.00 3729.50 1985.00 4000.00 3725.87 2058.90 4000.00 3735.50 1985.00 4000.00 3725.87 2058.90 4000.00 3731.84 2059.49 4000.00 3731.84 2059.49 4000.00 3725.87 2058.90 4000.00 3715.01 2132.10 4000.00 3731.84 2059.49 4000.00 3715.01 2132.10 4000.00 3720.90 2133.27 4000.00 3720.90 2133.27 4000.00 3715.01 2132.10 4000.00 3697.03 2203.87 4000.00 3720.90 2133.27 4000.00 3697.03 2203.87 4000.00 3702.77 2205.62 4000.00 3702.77 2205.62 4000.00 3697.03 2203.87 4000.00 3672.11 2273.54 4000.00 3702.77 2205.62 4000.00 3672.11 2273.54 4000.00 3677.65 2275.84 4000.00 3677.65 2275.84 4000.00 3672.11 2273.54 4000.00 3640.47 2340.43 4000.00 3677.65 2275.84 4000.00 3640.47 2340.43 4000.00 3645.76 2343.26 4000.00 3645.76 2343.26 4000.00 3640.47 2340.43 4000.00 3602.43 2403.90 4000.00 3645.76 2343.26 4000.00 3602.43 2403.90 4000.00 3607.42 2407.23 4000.00 3607.42 2407.23 4000.00 3602.43 2403.90 4000.00 3558.35 2463.33 4000.00 3607.42 2407.23 4000.00 3558.35 2463.33 4000.00 3562.99 2467.14 4000.00 3562.99 2467.14 4000.00 3558.35 2463.33 4000.00 3508.66 2518.16 4000.00 3562.99 2467.14 4000.00 3508.66 2518.16 4000.00 3512.90 2522.40 4000.00 3512.90 2522.40 4000.00 3508.66 2518.16 4000.00 3453.83 2567.85 4000.00 3512.90 2522.40 4000.00 3453.83 2567.85 4000.00 3457.64 2572.49 4000.00 3457.64 2572.49 4000.00 3453.83 2567.85 4000.00 3394.40 2611.93 4000.00 3457.64 2572.49 4000.00 3394.40 2611.93 4000.00 3397.73 2616.92 4000.00 3397.73 2616.92 4000.00 3394.40 2611.93 4000.00 3330.93 2649.97 4000.00 3397.73 2616.92 4000.00 3330.93 2649.97 4000.00 3333.76 2655.26 4000.00 3333.76 2655.26 4000.00 3330.93 2649.97 4000.00 3264.04 2681.61 4000.00 3333.76 2655.26 4000.00 3264.04 2681.61 4000.00 3266.34 2687.15 4000.00 3266.34 2687.15 4000.00 3264.04 2681.61 4000.00 3194.37 2706.53 4000.00 3266.34 2687.15 4000.00 3194.37 2706.53 4000.00 3196.12 2712.27 4000.00 3196.12 2712.27 4000.00 3194.37 2706.53 4000.00 3122.60 2724.51 4000.00 3196.12 2712.27 4000.00 3122.60 2724.51 4000.00 3123.77 2730.40 4000.00 3123.77 2730.40 4000.00 3122.60 2724.51 4000.00 3049.40 2735.37 4000.00 3123.77 2730.40 4000.00 3049.40 2735.37 4000.00 3049.99 2741.34 4000.00 3049.99 2741.34 4000.00 3049.40 2735.37 4000.00 2975.50 2739.00 4000.00 3049.99 2741.34 4000.00 2975.50 2739.00 4000.00 2975.50 2745.00 4000.00 2975.50 2745.00 4000.00 2975.50 2739.00 4000.00 2901.60 2735.37 4000.00 2975.50 2745.00 4000.00 2901.60 2735.37 4000.00 2901.01 2741.34 4000.00 2901.01 2741.34 4000.00 2901.60 2735.37 4000.00 2828.40 2724.51 4000.00 2901.01 2741.34 4000.00 2828.40 2724.51 4000.00 2827.23 2730.40 4000.00 2827.23 2730.40 4000.00 2828.40 2724.51 4000.00 2756.63 2706.53 4000.00 2827.23 2730.40 4000.00 2756.63 2706.53 4000.00 2754.88 2712.27 4000.00 2754.88 2712.27 4000.00 2756.63 2706.53 4000.00 2686.96 2681.61 4000.00 2754.88 2712.27 4000.00 2686.96 2681.61 4000.00 2684.66 2687.15 4000.00 2684.66 2687.15 4000.00 2686.96 2681.61 4000.00 2620.07 2649.97 4000.00 2684.66 2687.15 4000.00 2620.07 2649.97 4000.00 2617.24 2655.26 4000.00 2617.24 2655.26 4000.00 2620.07 2649.97 4000.00 2556.60 2611.93 4000.00 2617.24 2655.26 4000.00 2556.60 2611.93 4000.00 2553.27 2616.92 4000.00 2553.27 2616.92 4000.00 2556.60 2611.93 4000.00 2497.17 2567.85 4000.00 2553.27 2616.92 4000.00 2497.17 2567.85 4000.00 2493.36 2572.49 4000.00 2493.36 2572.49 4000.00 2497.17 2567.85 4000.00 2442.34 2518.16 4000.00 2493.36 2572.49 4000.00 2442.34 2518.16 4000.00 2438.10 2522.40 4000.00 2438.10 2522.40 4000.00 2442.34 2518.16 4000.00 2392.65 2463.33 4000.00 2438.10 2522.40 4000.00 2392.65 2463.33 4000.00 2388.01 2467.14 4000.00 2388.01 2467.14 4000.00 2392.65 2463.33 4000.00 2348.57 2403.90 4000.00 2388.01 2467.14 4000.00 2348.57 2403.90 4000.00 2343.58 2407.23 4000.00 2343.58 2407.23 4000.00 2348.57 2403.90 4000.00 2310.53 2340.43 4000.00 2343.58 2407.23 4000.00 2310.53 2340.43 4000.00 2305.24 2343.26 4000.00 2305.24 2343.26 4000.00 2310.53 2340.43 4000.00 2278.89 2273.54 4000.00 2305.24 2343.26 4000.00 2278.89 2273.54 4000.00 2273.35 2275.84 4000.00 2273.35 2275.84 4000.00 2278.89 2273.54 4000.00 2253.97 2203.87 4000.00 2273.35 2275.84 4000.00 2253.97 2203.87 4000.00 2248.23 2205.62 4000.00 2248.23 2205.62 4000.00 2253.97 2203.87 4000.00 2235.99 2132.10 4000.00 2248.23 2205.62 4000.00 2235.99 2132.10 4000.00 2230.10 2133.27 4000.00 2230.10 2133.27 4000.00 2235.99 2132.10 4000.00 2225.13 2058.90 4000.00 2230.10 2133.27 4000.00 2225.13 2058.90 4000.00 2219.16 2059.49 4000.00 2219.16 2059.49 4000.00 2225.13 2058.90 4000.00 2221.50 1985.00 4000.00 2219.16 2059.49 4000.00 2221.50 1985.00 4000.00 2215.50 1985.00 4000.00 2215.50 1985.00 4000.00 2221.50 1985.00 4000.00 2225.13 1911.10 4000.00 2215.50 1985.00 4000.00 2225.13 1911.10 4000.00 2219.16 1910.51 4000.00 2219.16 1910.51 4000.00 2225.13 1911.10 4000.00 2235.99 1837.90 4000.00 2219.16 1910.51 4000.00 2235.99 1837.90 4000.00 2230.10 1836.73 4000.00 2230.10 1836.73 4000.00 2235.99 1837.90 4000.00 2253.97 1766.13 4000.00 2230.10 1836.73 4000.00 2253.97 1766.13 4000.00 2248.23 1764.38 4000.00 2248.23 1764.38 4000.00 2253.97 1766.13 4000.00 2278.89 1696.46 4000.00 2248.23 1764.38 4000.00 2278.89 1696.46 4000.00 2273.35 1694.16 4000.00 2273.35 1694.16 4000.00 2278.89 1696.46 4000.00 2310.53 1629.57 4000.00 2273.35 1694.16 4000.00 2310.53 1629.57 4000.00 2305.24 1626.74 4000.00 2305.24 1626.74 4000.00 2310.53 1629.57 4000.00 2348.57 1566.10 4000.00 2305.24 1626.74 4000.00 2348.57 1566.10 4000.00 2343.58 1562.77 4000.00 2343.58 1562.77 4000.00 2348.57 1566.10 4000.00 2392.65 1506.67 4000.00 2343.58 1562.77 4000.00 2392.65 1506.67 4000.00 2388.01 1502.86 4000.00 2388.01 1502.86 4000.00 2392.65 1506.67 4000.00 2442.34 1451.84 4000.00 2388.01 1502.86 4000.00 2442.34 1451.84 4000.00 2438.10 1447.60 4000.00 2438.10 1447.60 4000.00 2442.34 1451.84 4000.00 2497.17 1402.15 4000.00 2438.10 1447.60 4000.00 2497.17 1402.15 4000.00 2493.36 1397.51 4000.00 2493.36 1397.51 4000.00 2497.17 1402.15 4000.00 2556.60 1358.07 4000.00 2493.36 1397.51 4000.00 2556.60 1358.07 4000.00 2553.27 1353.08 4000.00 2553.27 1353.08 4000.00 2556.60 1358.07 4000.00 2620.07 1320.03 4000.00 2553.27 1353.08 4000.00 2620.07 1320.03 4000.00 2617.24 1314.74 4000.00 2617.24 1314.74 4000.00 2620.07 1320.03 4000.00 2686.96 1288.39 4000.00 2617.24 1314.74 4000.00 2686.96 1288.39 4000.00 2684.66 1282.85 4000.00 2684.66 1282.85 4000.00 2686.96 1288.39 4000.00 2756.63 1263.47 4000.00 2684.66 1282.85 4000.00 2756.63 1263.47 4000.00 2754.88 1257.73 4000.00 2754.88 1257.73 4000.00 2756.63 1263.47 4000.00 2828.40 1245.49 4000.00 2754.88 1257.73 4000.00 2828.40 1245.49 4000.00 2827.23 1239.60 4000.00 2827.23 1239.60 4000.00 2828.40 1245.49 4000.00 2901.60 1234.63 4000.00 2827.23 1239.60 4000.00 2901.60 1234.63 4000.00 2901.01 1228.66 4000.00 2901.01 1228.66 4000.00 2901.60 1234.63 4000.00 2975.50 1231.00 4000.00 2901.01 1228.66 4000.00 2975.50 1231.00 4000.00 2975.50 1225.00 4000.00 2975.50 1225.00 4000.00 2975.50 1231.00 4000.00 3049.40 1234.63 4000.00 2975.50 1225.00 4000.00 3049.40 1234.63 4000.00 3049.99 1228.66 4000.00 3049.99 1228.66 4000.00 3049.40 1234.63 4000.00 3122.60 1245.49 4000.00 3049.99 1228.66 4000.00 3122.60 1245.49 4000.00 3123.77 1239.60 4000.00 3123.77 1239.60 4000.00 3122.60 1245.49 4000.00 3194.37 1263.47 4000.00 3123.77 1239.60 4000.00 3194.37 1263.47 4000.00 3196.12 1257.73 4000.00 3196.12 1257.73 4000.00 3194.37 1263.47 4000.00 3264.04 1288.39 4000.00 3196.12 1257.73 4000.00 3264.04 1288.39 4000.00 3266.34 1282.85 4000.00 3266.34 1282.85 4000.00 3264.04 1288.39 4000.00 3330.93 1320.03 4000.00 3266.34 1282.85 4000.00 3330.93 1320.03 4000.00 3333.76 1314.74 4000.00 3333.76 1314.74 4000.00 3330.93 1320.03 4000.00 3394.40 1358.07 4000.00 3333.76 1314.74 4000.00 3394.40 1358.07 4000.00 3397.73 1353.08 4000.00 3397.73 1353.08 4000.00 3394.40 1358.07 4000.00 3453.83 1402.15 4000.00 3397.73 1353.08 4000.00 3453.83 1402.15 4000.00 3457.64 1397.51 4000.00 3457.64 1397.51 4000.00 3453.83 1402.15 4000.00 3508.66 1451.84 4000.00 3457.64 1397.51 4000.00 3508.66 1451.84 4000.00 3512.90 1447.60 4000.00 3512.90 1447.60 4000.00 3508.66 1451.84 4000.00 3558.35 1506.67 4000.00 3512.90 1447.60 4000.00 3558.35 1506.67 4000.00 3562.99 1502.86 4000.00 3562.99 1502.86 4000.00 3558.35 1506.67 4000.00 3602.43 1566.10 4000.00 3562.99 1502.86 4000.00 3602.43 1566.10 4000.00 3607.42 1562.77 4000.00 3607.42 1562.77 4000.00 3602.43 1566.10 4000.00 3640.47 1629.57 4000.00 3607.42 1562.77 4000.00 3640.47 1629.57 4000.00 3645.76 1626.74 4000.00 3645.76 1626.74 4000.00 3640.47 1629.57 4000.00 3672.11 1696.46 4000.00 3645.76 1626.74 4000.00 3672.11 1696.46 4000.00 3677.65 1694.16 4000.00 3677.65 1694.16 4000.00 3672.11 1696.46 4000.00 3697.03 1766.13 4000.00 3677.65 1694.16 4000.00 3697.03 1766.13 4000.00 3702.77 1764.38 4000.00 3702.77 1764.38 4000.00 3697.03 1766.13 4000.00 3715.01 1837.90 4000.00 3702.77 1764.38 4000.00 3715.01 1837.90 4000.00 3720.90 1836.73 4000.00 3720.90 1836.73 4000.00 3715.01 1837.90 4000.00 3725.87 1911.10 4000.00 3720.90 1836.73 4000.00 3725.87 1911.10 4000.00 3731.84 1910.51 4000.00 3731.84 1910.51 4000.00 3725.87 1911.10 4000.00 3729.50 1985.00 4000.00 3731.84 1910.51 4000.00 3729.50 1985.00 4000.00 3735.50 1985.00 4000.00</float_array>
          <technique_common>
            <accessor source="#ban-cap-pos-a" count="576" stride="3">
              <param name="X" type="float"/><param name="Y" type="float"/><param name="Z" type="float"/>
            </accessor>
          </technique_common>
        </source>
        <vertices id="ban-cap-vtx"><input semantic="POSITION" source="#ban-cap-pos"/></vertices>
        <triangles count="192">
          <input semantic="VERTEX" source="#ban-cap-vtx" offset="0"/>
          <p>0 1 2 3 4 5 6 7 8 9 10 11 12 13 14 15 16 17 18 19 20 21 22 23 24 25 26 27 28 29 30 31 32 33 34 35 36 37 38 39 40 41 42 43 44 45 46 47 48 49 50 51 52 53 54 55 56 57 58 59 60 61 62 63 64 65 66 67 68 69 70 71 72 73 74 75 76 77 78 79 80 81 82 83 84 85 86 87 88 89 90 91 92 93 94 95 96 97 98 99 100 101 102 103 104 105 106 107 108 109 110 111 112 113 114 115 116 117 118 119 120 121 122 123 124 125 126 127 128 129 130 131 132 133 134 135 136 137 138 139 140 141 142 143 144 145 146 147 148 149 150 151 152 153 154 155 156 157 158 159 160 161 162 163 164 165 166 167 168 169 170 171 172 173 174 175 176 177 178 179 180 181 182 183 184 185 186 187 188 189 190 191 192 193 194 195 196 197 198 199 200 201 202 203 204 205 206 207 208 209 210 211 212 213 214 215 216 217 218 219 220 221 222 223 224 225 226 227 228 229 230 231 232 233 234 235 236 237 238 239 240 241 242 243 244 245 246 247 248 249 250 251 252 253 254 255 256 257 258 259 260 261 262 263 264 265 266 267 268 269 270 271 272 273 274 275 276 277 278 279 280 281 282 283 284 285 286 287 288 289 290 291 292 293 294 295 296 297 298 299 300 301 302 303 304 305 306 307 308 309 310 311 312 313 314 315 316 317 318 319 320 321 322 323 324 325 326 327 328 329 330 331 332 333 334 335 336 337 338 339 340 341 342 343 344 345 346 347 348 349 350 351 352 353 354 355 356 357 358 359 360 361 362 363 364 365 366 367 368 369 370 371 372 373 374 375 376 377 378 379 380 381 382 383 384 385 386 387 388 389 390 391 392 393 394 395 396 397 398 399 400 401 402 403 404 405 406 407 408 409 410 411 412 413 414 415 416 417 418 419 420 421 422 423 424 425 426 427 428 429 430 431 432 433 434 435 436 437 438 439 440 441 442 443 444 445 446 447 448 449 450 451 452 453 454 455 456 457 458 459 460 461 462 463 464 465 466 467 468 469 470 471 472 473 474 475 476 477 478 479 480 481 482 483 484 485 486 487 488 489 490 491 492 493 494 495 496 497 498 499 500 501 502 503 504 505 506 507 508 509 510 511 512 513 514 515 516 517 518 519 520 521 522 523 524 525 526 527 528 529 530 531 532 533 534 535 536 537 538 539 540 541 542 543 544 545 546 547 548 549 550 551 552 553 554 555 556 557 558 559 560 561 562 563 564 565 566 567 568 569 570 571 572 573 574 575</p>
        </triangles>
      </mesh>
    </geometry>
  </library_geometries>
  <library_visual_scenes>
    <visual_scene id="Scene" name="banner_v_stanku">
      <node id="ban-graphic-node" name="banner_graphic" type="NODE">
        <instance_geometry url="#ban-graphic-geo"/>
      </node>
      <node id="ban-inner-node" name="banner_inner" type="NODE">
        <instance_geometry url="#ban-inner-geo"/>
      </node>
      <node id="ban-cap-node" name="banner_cap" type="NODE">
        <instance_geometry url="#ban-cap-geo"/>
      </node>
    </visual_scene>
  </library_visual_scenes>
  <scene><instance_visual_scene url="#Scene"/></scene>
</COLLADA>