solid stanek_S4244
  facet normal 0.000000 0.000000 -1.000000
    outer loop
      vertex 0.000 0.000 -10.000
      vertex 0.000 2970.000 -10.000
      vertex 5951.000 2970.000 -10.000
    endloop
  endfacet
  facet normal 0.000000 0.000000 -1.000000
    outer loop
      vertex 0.000 0.000 -10.000
      vertex 5951.000 2970.000 -10.000
      vertex 5951.000 0.000 -10.000
    endloop
  endfacet
  facet normal 0.000000 0.000000 1.000000
    outer loop
      vertex 0.000 0.000 0.000
      vertex 5951.000 0.000 0.000
      vertex 5951.000 2970.000 0.000
    endloop
  endfacet
  facet normal 0.000000 0.000000 1.000000
    outer loop
      vertex 0.000 0.000 0.000
      vertex 5951.000 2970.000 0.000
      vertex 0.000 2970.000 0.000
    endloop
  endfacet
  facet normal 0.000000 -1.000000 0.000000
    outer loop
      vertex 0.000 0.000 -10.000
      vertex 5951.000 0.000 -10.000
      vertex 5951.000 0.000 0.000
    endloop
  endfacet
  facet normal 0.000000 -1.000000 0.000000
    outer loop
      vertex 0.000 0.000 -10.000
      vertex 5951.000 0.000 0.000
      vertex 0.000 0.000 0.000
    endloop
  endfacet
  facet normal 0.000000 1.000000 0.000000
    outer loop
      vertex 5951.000 2970.000 -10.000
      vertex 0.000 2970.000 -10.000
      vertex 0.000 2970.000 0.000
    endloop
  endfacet
  facet normal 0.000000 1.000000 0.000000
    outer loop
      vertex 5951.000 2970.000 -10.000
      vertex 0.000 2970.000 0.000
      vertex 5951.000 2970.000 0.000
    endloop
  endfacet
  facet normal 1.000000 0.000000 0.000000
    outer loop
      vertex 5951.000 0.000 -10.000
      vertex 5951.000 2970.000 -10.000
      vertex 5951.000 2970.000 0.000
    endloop
  endfacet
  facet normal 1.000000 0.000000 0.000000
    outer loop
      vertex 5951.000 0.000 -10.000
      vertex 5951.000 2970.000 0.000
      vertex 5951.000 0.000 0.000
    endloop
  endfacet
  facet normal -1.000000 0.000000 0.000000
    outer loop
      vertex 0.000 0.000 -10.000
      vertex 0.000 0.000 0.000
      vertex 0.000 2970.000 0.000
    endloop
  endfacet
  facet normal -1.000000 0.000000 0.000000
    outer loop
      vertex 0.000 0.000 -10.000
      vertex 0.000 2970.000 0.000
      vertex 0.000 2970.000 -10.000
    endloop
  endfacet
  facet normal 0.000000 0.000000 -1.000000
    outer loop
      vertex 0.000 0.000 0.000
      vertex 0.000 40.000 0.000
      vertex 986.000 40.000 0.000
    endloop
  endfacet
  facet normal 0.000000 0.000000 -1.000000
    outer loop
      vertex 0.000 0.000 0.000
      vertex 986.000 40.000 0.000
      vertex 986.000 0.000 0.000
    endloop
  endfacet
  facet normal 0.000000 0.000000 1.000000
    outer loop
      vertex 0.000 0.000 2500.000
      vertex 986.000 0.000 2500.000
      vertex 986.000 40.000 2500.000
    endloop
  endfacet
  facet normal 0.000000 0.000000 1.000000
    outer loop
      vertex 0.000 0.000 2500.000
      vertex 986.000 40.000 2500.000
      vertex 0.000 40.000 2500.000
    endloop
  endfacet
  facet normal 0.000000 -1.000000 0.000000
    outer loop
      vertex 0.000 0.000 0.000
      vertex 986.000 0.000 0.000
      vertex 986.000 0.000 2500.000
    endloop
  endfacet
  facet normal 0.000000 -1.000000 0.000000
    outer loop
      vertex 0.000 0.000 0.000
      vertex 986.000 0.000 2500.000
      vertex 0.000 0.000 2500.000
    endloop
  endfacet
  facet normal 0.000000 1.000000 0.000000
    outer loop
      vertex 986.000 40.000 0.000
      vertex 0.000 40.000 0.000
      vertex 0.000 40.000 2500.000
    endloop
  endfacet
  facet normal 0.000000 1.000000 -0.000000
    outer loop
      vertex 986.000 40.000 0.000
      vertex 0.000 40.000 2500.000
      vertex 986.000 40.000 2500.000
    endloop
  endfacet
  facet normal 1.000000 0.000000 0.000000
    outer loop
      vertex 986.000 0.000 0.000
      vertex 986.000 40.000 0.000
      vertex 986.000 40.000 2500.000
    endloop
  endfacet
  facet normal 1.000000 0.000000 0.000000
    outer loop
      vertex 986.000 0.000 0.000
      vertex 986.000 40.000 2500.000
      vertex 986.000 0.000 2500.000
    endloop
  endfacet
  facet normal -1.000000 0.000000 0.000000
    outer loop
      vertex 0.000 0.000 0.000
      vertex 0.000 0.000 2500.000
      vertex 0.000 40.000 2500.000
    endloop
  endfacet
  facet normal -1.000000 0.000000 0.000000
    outer loop
      vertex 0.000 0.000 0.000
      vertex 0.000 40.000 2500.000
      vertex 0.000 40.000 0.000
    endloop
  endfacet
  facet normal 0.000000 0.000000 -1.000000
    outer loop
      vertex 993.000 0.000 0.000
      vertex 993.000 40.000 0.000
      vertex 1979.000 40.000 0.000
    endloop
  endfacet
  facet normal 0.000000 0.000000 -1.000000
    outer loop
      vertex 993.000 0.000 0.000
      vertex 1979.000 40.000 0.000
      vertex 1979.000 0.000 0.000
    endloop
  endfacet
  facet normal 0.000000 0.000000 1.000000
    outer loop
      vertex 993.000 0.000 2500.000
      vertex 1979.000 0.000 2500.000
      vertex 1979.000 40.000 2500.000
    endloop
  endfacet
  facet normal 0.000000 0.000000 1.000000
    outer loop
      vertex 993.000 0.000 2500.000
      vertex 1979.000 40.000 2500.000
      vertex 993.000 40.000 2500.000
    endloop
  endfacet
  facet normal 0.000000 -1.000000 0.000000
    outer loop
      vertex 993.000 0.000 0.000
      vertex 1979.000 0.000 0.000
      vertex 1979.000 0.000 2500.000
    endloop
  endfacet
  facet normal 0.000000 -1.000000 0.000000
    outer loop
      vertex 993.000 0.000 0.000
      vertex 1979.000 0.000 2500.000
      vertex 993.000 0.000 2500.000
    endloop
  endfacet
  facet normal 0.000000 1.000000 0.000000
    outer loop
      vertex 1979.000 40.000 0.000
      vertex 993.000 40.000 0.000
      vertex 993.000 40.000 2500.000
    endloop
  endfacet
  facet normal 0.000000 1.000000 -0.000000
    outer loop
      vertex 1979.000 40.000 0.000
      vertex 993.000 40.000 2500.000
      vertex 1979.000 40.000 2500.000
    endloop
  endfacet
  facet normal 1.000000 0.000000 0.000000
    outer loop
      vertex 1979.000 0.000 0.000
      vertex 1979.000 40.000 0.000
      vertex 1979.000 40.000 2500.000
    endloop
  endfacet
  facet normal 1.000000 0.000000 0.000000
    outer loop
      vertex 1979.000 0.000 0.000
      vertex 1979.000 40.000 2500.000
      vertex 1979.000 0.000 2500.000
    endloop
  endfacet
  facet normal -1.000000 0.000000 0.000000
    outer loop
      vertex 993.000 0.000 0.000
      vertex 993.000 0.000 2500.000
      vertex 993.000 40.000 2500.000
    endloop
  endfacet
  facet normal -1.000000 0.000000 0.000000
    outer loop
      vertex 993.000 0.000 0.000
      vertex 993.000 40.000 2500.000
      vertex 993.000 40.000 0.000
    endloop
  endfacet
  facet normal 0.000000 0.000000 -1.000000
    outer loop
      vertex 1986.000 0.000 0.000
      vertex 1986.000 40.000 0.000
      vertex 2972.000 40.000 0.000
    endloop
  endfacet
  facet normal 0.000000 0.000000 -1.000000
    outer loop
      vertex 1986.000 0.000 0.000
      vertex 2972.000 40.000 0.000
      vertex 2972.000 0.000 0.000
    endloop
  endfacet
  facet normal 0.000000 0.000000 1.000000
    outer loop
      vertex 1986.000 0.000 2500.000
      vertex 2972.000 0.000 2500.000
      vertex 2972.000 40.000 2500.000
    endloop
  endfacet
  facet normal 0.000000 0.000000 1.000000
    outer loop
      vertex 1986.000 0.000 2500.000
      vertex 2972.000 40.000 2500.000
      vertex 1986.000 40.000 2500.000
    endloop
  endfacet
  facet normal 0.000000 -1.000000 0.000000
    outer loop
      vertex 1986.000 0.000 0.000
      vertex 2972.000 0.000 0.000
      vertex 2972.000 0.000 2500.000
    endloop
  endfacet
  facet normal 0.000000 -1.000000 0.000000
    outer loop
      vertex 1986.000 0.000 0.000
      vertex 2972.000 0.000 2500.000
      vertex 1986.000 0.000 2500.000
    endloop
  endfacet
  facet normal 0.000000 1.000000 0.000000
    outer loop
      vertex 2972.000 40.000 0.000
      vertex 1986.000 40.000 0.000
      vertex 1986.000 40.000 2500.000
    endloop
  endfacet
  facet normal 0.000000 1.000000 -0.000000
    outer loop
      vertex 2972.000 40.000 0.000
      vertex 1986.000 40.000 2500.000
      vertex 2972.000 40.000 2500.000
    endloop
  endfacet
  facet normal 1.000000 0.000000 0.000000
    outer loop
      vertex 2972.000 0.000 0.000
      vertex 2972.000 40.000 0.000
      vertex 2972.000 40.000 2500.000
    endloop
  endfacet
  facet normal 1.000000 0.000000 0.000000
    outer loop
      vertex 2972.000 0.000 0.000
      vertex 2972.000 40.000 2500.000
      vertex 2972.000 0.000 2500.000
    endloop
  endfacet
  facet normal -1.000000 0.000000 0.000000
    outer loop
      vertex 1986.000 0.000 0.000
      vertex 1986.000 0.000 2500.000
      vertex 1986.000 40.000 2500.000
    endloop
  endfacet
  facet normal -1.000000 0.000000 0.000000
    outer loop
      vertex 1986.000 0.000 0.000
      vertex 1986.000 40.000 2500.000
      vertex 1986.000 40.000 0.000
    endloop
  endfacet
  facet normal 0.000000 0.000000 -1.000000
    outer loop
      vertex 2979.000 0.000 0.000
      vertex 2979.000 40.000 0.000
      vertex 3965.000 40.000 0.000
    endloop
  endfacet
  facet normal 0.000000 0.000000 -1.000000
    outer loop
      vertex 2979.000 0.000 0.000
      vertex 3965.000 40.000 0.000
      vertex 3965.000 0.000 0.000
    endloop
  endfacet
  facet normal 0.000000 0.000000 1.000000
    outer loop
      vertex 2979.000 0.000 2500.000
      vertex 3965.000 0.000 2500.000
      vertex 3965.000 40.000 2500.000
    endloop
  endfacet
  facet normal 0.000000 0.000000 1.000000
    outer loop
      vertex 2979.000 0.000 2500.000
      vertex 3965.000 40.000 2500.000
      vertex 2979.000 40.000 2500.000
    endloop
  endfacet
  facet normal 0.000000 -1.000000 0.000000
    outer loop
      vertex 2979.000 0.000 0.000
      vertex 3965.000 0.000 0.000
      vertex 3965.000 0.000 2500.000
    endloop
  endfacet
  facet normal 0.000000 -1.000000 0.000000
    outer loop
      vertex 2979.000 0.000 0.000
      vertex 3965.000 0.000 2500.000
      vertex 2979.000 0.000 2500.000
    endloop
  endfacet
  facet normal 0.000000 1.000000 0.000000
    outer loop
      vertex 3965.000 40.000 0.000
      vertex 2979.000 40.000 0.000
      vertex 2979.000 40.000 2500.000
    endloop
  endfacet
  facet normal 0.000000 1.000000 -0.000000
    outer loop
      vertex 3965.000 40.000 0.000
      vertex 2979.000 40.000 2500.000
      vertex 3965.000 40.000 2500.000
    endloop
  endfacet
  facet normal 1.000000 0.000000 0.000000
    outer loop
      vertex 3965.000 0.000 0.000
      vertex 3965.000 40.000 0.000
      vertex 3965.000 40.000 2500.000
    endloop
  endfacet
  facet normal 1.000000 0.000000 0.000000
    outer loop
      vertex 3965.000 0.000 0.000
      vertex 3965.000 40.000 2500.000
      vertex 3965.000 0.000 2500.000
    endloop
  endfacet
  facet normal -1.000000 0.000000 0.000000
    outer loop
      vertex 2979.000 0.000 0.000
      vertex 2979.000 0.000 2500.000
      vertex 2979.000 40.000 2500.000
    endloop
  endfacet
  facet normal -1.000000 0.000000 0.000000
    outer loop
      vertex 2979.000 0.000 0.000
      vertex 2979.000 40.000 2500.000
      vertex 2979.000 40.000 0.000
    endloop
  endfacet
  facet normal 0.000000 0.000000 -1.000000
    outer loop
      vertex 3972.000 0.000 0.000
      vertex 3972.000 40.000 0.000
      vertex 4958.000 40.000 0.000
    endloop
  endfacet
  facet normal 0.000000 0.000000 -1.000000
    outer loop
      vertex 3972.000 0.000 0.000
      vertex 4958.000 40.000 0.000
      vertex 4958.000 0.000 0.000
    endloop
  endfacet
  facet normal 0.000000 0.000000 1.000000
    outer loop
      vertex 3972.000 0.000 2500.000
      vertex 4958.000 0.000 2500.000
      vertex 4958.000 40.000 2500.000
    endloop
  endfacet
  facet normal 0.000000 0.000000 1.000000
    outer loop
      vertex 3972.000 0.000 2500.000
      vertex 4958.000 40.000 2500.000
      vertex 3972.000 40.000 2500.000
    endloop
  endfacet
  facet normal 0.000000 -1.000000 0.000000
    outer loop
      vertex 3972.000 0.000 0.000
      vertex 4958.000 0.000 0.000
      vertex 4958.000 0.000 2500.000
    endloop
  endfacet
  facet normal 0.000000 -1.000000 0.000000
    outer loop
      vertex 3972.000 0.000 0.000
      vertex 4958.000 0.000 2500.000
      vertex 3972.000 0.000 2500.000
    endloop
  endfacet
  facet normal 0.000000 1.000000 0.000000
    outer loop
      vertex 4958.000 40.000 0.000
      vertex 3972.000 40.000 0.000
      vertex 3972.000 40.000 2500.000
    endloop
  endfacet
  facet normal 0.000000 1.000000 -0.000000
    outer loop
      vertex 4958.000 40.000 0.000
      vertex 3972.000 40.000 2500.000
      vertex 4958.000 40.000 2500.000
    endloop
  endfacet
  facet normal 1.000000 0.000000 0.000000
    outer loop
      vertex 4958.000 0.000 0.000
      vertex 4958.000 40.000 0.000
      vertex 4958.000 40.000 2500.000
    endloop
  endfacet
  facet normal 1.000000 0.000000 0.000000
    outer loop
      vertex 4958.000 0.000 0.000
      vertex 4958.000 40.000 2500.000
      vertex 4958.000 0.000 2500.000
    endloop
  endfacet
  facet normal -1.000000 0.000000 0.000000
    outer loop
      vertex 3972.000 0.000 0.000
      vertex 3972.000 0.000 2500.000
      vertex 3972.000 40.000 2500.000
    endloop
  endfacet
  facet normal -1.000000 0.000000 0.000000
    outer loop
      vertex 3972.000 0.000 0.000
      vertex 3972.000 40.000 2500.000
      vertex 3972.000 40.000 0.000
    endloop
  endfacet
  facet normal 0.000000 0.000000 -1.000000
    outer loop
      vertex 4965.000 0.000 0.000
      vertex 4965.000 40.000 0.000
      vertex 5951.000 40.000 0.000
    endloop
  endfacet
  facet normal 0.000000 0.000000 -1.000000
    outer loop
      vertex 4965.000 0.000 0.000
      vertex 5951.000 40.000 0.000
      vertex 5951.000 0.000 0.000
    endloop
  endfacet
  facet normal 0.000000 0.000000 1.000000
    outer loop
      vertex 4965.000 0.000 2500.000
      vertex 5951.000 0.000 2500.000
      vertex 5951.000 40.000 2500.000
    endloop
  endfacet
  facet normal 0.000000 0.000000 1.000000
    outer loop
      vertex 4965.000 0.000 2500.000
      vertex 5951.000 40.000 2500.000
      vertex 4965.000 40.000 2500.000
    endloop
  endfacet
  facet normal 0.000000 -1.000000 0.000000
    outer loop
      vertex 4965.000 0.000 0.000
      vertex 5951.000 0.000 0.000
      vertex 5951.000 0.000 2500.000
    endloop
  endfacet
  facet normal 0.000000 -1.000000 0.000000
    outer loop
      vertex 4965.000 0.000 0.000
      vertex 5951.000 0.000 2500.000
      vertex 4965.000 0.000 2500.000
    endloop
  endfacet
  facet normal 0.000000 1.000000 0.000000
    outer loop
      vertex 5951.000 40.000 0.000
      vertex 4965.000 40.000 0.000
      vertex 4965.000 40.000 2500.000
    endloop
  endfacet
  facet normal 0.000000 1.000000 -0.000000
    outer loop
      vertex 5951.000 40.000 0.000
      vertex 4965.000 40.000 2500.000
      vertex 5951.000 40.000 2500.000
    endloop
  endfacet
  facet normal 1.000000 0.000000 0.000000
    outer loop
      vertex 5951.000 0.000 0.000
      vertex 5951.000 40.000 0.000
      vertex 5951.000 40.000 2500.000
    endloop
  endfacet
  facet normal 1.000000 0.000000 0.000000
    outer loop
      vertex 5951.000 0.000 0.000
      vertex 5951.000 40.000 2500.000
      vertex 5951.000 0.000 2500.000
    endloop
  endfacet
  facet normal -1.000000 0.000000 0.000000
    outer loop
      vertex 4965.000 0.000 0.000
      vertex 4965.000 0.000 2500.000
      vertex 4965.000 40.000 2500.000
    endloop
  endfacet
  facet normal -1.000000 0.000000 0.000000
    outer loop
      vertex 4965.000 0.000 0.000
      vertex 4965.000 40.000 2500.000
      vertex 4965.000 40.000 0.000
    endloop
  endfacet
  facet normal 0.000000 0.000000 -1.000000
    outer loop
      vertex 0.000 0.000 0.000
      vertex 0.000 986.000 0.000
      vertex 40.000 986.000 0.000
    endloop
  endfacet
  facet normal 0.000000 0.000000 -1.000000
    outer loop
      vertex 0.000 0.000 0.000
      vertex 40.000 986.000 0.000
      vertex 40.000 0.000 0.000
    endloop
  endfacet
  facet normal 0.000000 0.000000 1.000000
    outer loop
      vertex 0.000 0.000 2500.000
      vertex 40.000 0.000 2500.000
      vertex 40.000 986.000 2500.000
    endloop
  endfacet
  facet normal 0.000000 0.000000 1.000000
    outer loop
      vertex 0.000 0.000 2500.000
      vertex 40.000 986.000 2500.000
      vertex 0.000 986.000 2500.000
    endloop
  endfacet
  facet normal 0.000000 -1.000000 0.000000
    outer loop
      vertex 0.000 0.000 0.000
      vertex 40.000 0.000 0.000
      vertex 40.000 0.000 2500.000
    endloop
  endfacet
  facet normal 0.000000 -1.000000 0.000000
    outer loop
      vertex 0.000 0.000 0.000
      vertex 40.000 0.000 2500.000
      vertex 0.000 0.000 2500.000
    endloop
  endfacet
  facet normal 0.000000 1.000000 0.000000
    outer loop
      vertex 40.000 986.000 0.000
      vertex 0.000 986.000 0.000
      vertex 0.000 986.000 2500.000
    endloop
  endfacet
  facet normal 0.000000 1.000000 -0.000000
    outer loop
      vertex 40.000 986.000 0.000
      vertex 0.000 986.000 2500.000
      vertex 40.000 986.000 2500.000
    endloop
  endfacet
  facet normal 1.000000 0.000000 0.000000
    outer loop
      vertex 40.000 0.000 0.000
      vertex 40.000 986.000 0.000
      vertex 40.000 986.000 2500.000
    endloop
  endfacet
  facet normal 1.000000 0.000000 0.000000
    outer loop
      vertex 40.000 0.000 0.000
      vertex 40.000 986.000 2500.000
      vertex 40.000 0.000 2500.000
    endloop
  endfacet
  facet normal -1.000000 0.000000 0.000000
    outer loop
      vertex 0.000 0.000 0.000
      vertex 0.000 0.000 2500.000
      vertex 0.000 986.000 2500.000
    endloop
  endfacet
  facet normal -1.000000 0.000000 0.000000
    outer loop
      vertex 0.000 0.000 0.000
      vertex 0.000 986.000 2500.000
      vertex 0.000 986.000 0.000
    endloop
  endfacet
  facet normal 0.000000 0.000000 -1.000000
    outer loop
      vertex 0.000 992.000 0.000
      vertex 0.000 1978.000 0.000
      vertex 40.000 1978.000 0.000
    endloop
  endfacet
  facet normal 0.000000 0.000000 -1.000000
    outer loop
      vertex 0.000 992.000 0.000
      vertex 40.000 1978.000 0.000
      vertex 40.000 992.000 0.000
    endloop
  endfacet
  facet normal 0.000000 0.000000 1.000000
    outer loop
      vertex 0.000 992.000 2500.000
      vertex 40.000 992.000 2500.000
      vertex 40.000 1978.000 2500.000
    endloop
  endfacet
  facet normal 0.000000 0.000000 1.000000
    outer loop
      vertex 0.000 992.000 2500.000
      vertex 40.000 1978.000 2500.000
      vertex 0.000 1978.000 2500.000
    endloop
  endfacet
  facet normal 0.000000 -1.000000 0.000000
    outer loop
      vertex 0.000 992.000 0.000
      vertex 40.000 992.000 0.000
      vertex 40.000 992.000 2500.000
    endloop
  endfacet
  facet normal 0.000000 -1.000000 0.000000
    outer loop
      vertex 0.000 992.000 0.000
      vertex 40.000 992.000 2500.000
      vertex 0.000 992.000 2500.000
    endloop
  endfacet
  facet normal 0.000000 1.000000 0.000000
    outer loop
      vertex 40.000 1978.000 0.000
      vertex 0.000 1978.000 0.000
      vertex 0.000 1978.000 2500.000
    endloop
  endfacet
  facet normal 0.000000 1.000000 -0.000000
    outer loop
      vertex 40.000 1978.000 0.000
      vertex 0.000 1978.000 2500.000
      vertex 40.000 1978.000 2500.000
    endloop
  endfacet
  facet normal 1.000000 0.000000 0.000000
    outer loop
      vertex 40.000 992.000 0.000
      vertex 40.000 1978.000 0.000
      vertex 40.000 1978.000 2500.000
    endloop
  endfacet
  facet normal 1.000000 0.000000 0.000000
    outer loop
      vertex 40.000 992.000 0.000
      vertex 40.000 1978.000 2500.000
      vertex 40.000 992.000 2500.000
    endloop
  endfacet
  facet normal -1.000000 0.000000 0.000000
    outer loop
      vertex 0.000 992.000 0.000
      vertex 0.000 992.000 2500.000
      vertex 0.000 1978.000 2500.000
    endloop
  endfacet
  facet normal -1.000000 0.000000 0.000000
    outer loop
      vertex 0.000 992.000 0.000
      vertex 0.000 1978.000 2500.000
      vertex 0.000 1978.000 0.000
    endloop
  endfacet
  facet normal 0.000000 0.000000 -1.000000
    outer loop
      vertex 0.000 1984.000 0.000
      vertex 0.000 2970.000 0.000
      vertex 40.000 2970.000 0.000
    endloop
  endfacet
  facet normal 0.000000 0.000000 -1.000000
    outer loop
      vertex 0.000 1984.000 0.000
      vertex 40.000 2970.000 0.000
      vertex 40.000 1984.000 0.000
    endloop
  endfacet
  facet normal 0.000000 0.000000 1.000000
    outer loop
      vertex 0.000 1984.000 2500.000
      vertex 40.000 1984.000 2500.000
      vertex 40.000 2970.000 2500.000
    endloop
  endfacet
  facet normal 0.000000 0.000000 1.000000
    outer loop
      vertex 0.000 1984.000 2500.000
      vertex 40.000 2970.000 2500.000
      vertex 0.000 2970.000 2500.000
    endloop
  endfacet
  facet normal 0.000000 -1.000000 0.000000
    outer loop
      vertex 0.000 1984.000 0.000
      vertex 40.000 1984.000 0.000
      vertex 40.000 1984.000 2500.000
    endloop
  endfacet
  facet normal 0.000000 -1.000000 0.000000
    outer loop
      vertex 0.000 1984.000 0.000
      vertex 40.000 1984.000 2500.000
      vertex 0.000 1984.000 2500.000
    endloop
  endfacet
  facet normal 0.000000 1.000000 0.000000
    outer loop
      vertex 40.000 2970.000 0.000
      vertex 0.000 2970.000 0.000
      vertex 0.000 2970.000 2500.000
    endloop
  endfacet
  facet normal 0.000000 1.000000 -0.000000
    outer loop
      vertex 40.000 2970.000 0.000
      vertex 0.000 2970.000 2500.000
      vertex 40.000 2970.000 2500.000
    endloop
  endfacet
  facet normal 1.000000 0.000000 0.000000
    outer loop
      vertex 40.000 1984.000 0.000
      vertex 40.000 2970.000 0.000
      vertex 40.000 2970.000 2500.000
    endloop
  endfacet
  facet normal 1.000000 0.000000 0.000000
    outer loop
      vertex 40.000 1984.000 0.000
      vertex 40.000 2970.000 2500.000
      vertex 40.000 1984.000 2500.000
    endloop
  endfacet
  facet normal -1.000000 0.000000 0.000000
    outer loop
      vertex 0.000 1984.000 0.000
      vertex 0.000 1984.000 2500.000
      vertex 0.000 2970.000 2500.000
    endloop
  endfacet
  facet normal -1.000000 0.000000 0.000000
    outer loop
      vertex 0.000 1984.000 0.000
      vertex 0.000 2970.000 2500.000
      vertex 0.000 2970.000 0.000
    endloop
  endfacet
endsolid stanek_S4244